<?xml version="1.0" encoding="utf-8"?>
<!-- Generator: Adobe Illustrator 25.2.3, SVG Export Plug-In . SVG Version: 6.00 Build 0)  -->
<svg version="1.1" id="Calque_1" xmlns="http://www.w3.org/2000/svg" xmlns:xlink="http://www.w3.org/1999/xlink" x="0px" y="0px"
	 viewBox="0 0 477.04 440.09" style="enable-background:new 0 0 477.04 440.09;" xml:space="preserve">
<style type="text/css">
	.st0{fill:#FFFFFF;stroke:#000000;stroke-miterlimit:10;}
</style>
<g>
	<path class="st0" d="M84.63,129.51v33.48h44.05c1.94,0,3.85,0.75,5.15,2.19c1.21,1.35,2.35,3.43,2.48,6.56
		c0.13,3.2-0.77,5.33-1.79,6.71c-1.03,1.4-2.69,2.18-4.42,2.18h-11.29l-0.42-13.2l-33.75,0.14l-0.42,132.38l70.56,0.69
		c0,0,8.47-0.97,11.67-3.89l0.97-42.64c0,0-2.87,6.09-10.27,10.15c-3.19,1.75-6.79,2.63-10.43,2.71l-27.92-0.19l-0.14-51.01
		l27.67-0.12c3.9-0.02,7.74,0.95,11.13,2.87c2.75,1.56,5.85,3.89,8.42,7.29c2.76,3.66,4.18,8.16,4.21,12.75l0.52,62.08h34.03v-62.99
		c0-2.77-0.31-5.53-0.94-8.22c-2.35-10.08-10.29-32.17-35.74-43.1c0,0,14.17-38.2-29.17-55.56c0,0-3.24-1.32-9.86-1.25L84.63,129.51
		L84.63,129.51z"/>
	<path class="st0" d="M170.66,129.45v26.33c0,0,6.32,11.14,1.81,28.14c0,0,34.31,13.7,35.67,52.68l46.05,64.05l64.87-88.43h18.96
		v-48.16h28.55c3.25,0,6.45,0.81,9.27,2.42c5.61,3.21,13.63,10.09,14.4,23.47c0.7,12.12-5.92,18.64-11.56,21.97
		c-3.57,2.11-7.68,3.13-11.83,3.13h-45.54l-16.86,22.75v62.85h33.71v-50.66h28.9c3.57,0,7.11-0.41,10.58-1.27
		c9.37-2.31,25.97-8.66,37.3-25.82c10.7-16.2,9.91-34.64,8.02-45.66c-1.17-6.78-3.79-13.23-7.58-18.98
		c-6.09-9.25-17.58-22.71-34.53-26.45c0,0-2.56-1.19-20.85-2.37h-55.87v45.74L254.5,241.5L170.66,129.45z"/>
</g>
</svg>
